<svg width="24" height="24" viewBox="0 0 24 24" fill="none" xmlns="http://www.w3.org/2000/svg">
<path d="M8.00555 23.3639V16.4519H15.2833V19.2599C15.2833 21.4919 13.4639 23.3639 11.1349 23.3639H8.00555Z" fill="#88CFB0"/>
<path d="M15.4289 16.3078V8.96381H22.7067V12.2038C22.7067 14.4358 20.8872 16.3078 18.5583 16.3078H15.4289Z" fill="#F2C94C"/>
<path d="M15.2833 8.96381H8.00555V16.2358H15.2833V8.96381Z" fill="#BD83CE"/>
<path d="M0.582187 8.82V5.58C0.582187 3.348 2.40163 1.476 4.73053 1.476H7.85997V8.82H0.582187Z" fill="#40BE88"/>
<path d="M15.4289 8.82V1.476H18.5583C20.8144 1.476 22.7067 3.276 22.7067 5.58V8.82H15.4289Z" fill="#FF7474"/>
<path d="M15.2833 1.476H8.00555V8.748H15.2833V1.476Z" fill="#6776F9"/>
<path d="M0.582187 19.2599V16.4519H7.85997V23.3639H4.73053C2.40163 23.3639 0.582187 21.5639 0.582187 19.2599Z" fill="#37C2E2"/>
<path d="M7.85997 8.96381H0.582187V16.2358H7.85997V8.96381Z" fill="#F2994A"/>
<path fill-rule="evenodd" clip-rule="evenodd" d="M0 19.2599V5.5799C0 2.9879 2.11056 0.899902 4.73055 0.899902H18.5583C21.1784 0.899902 23.2889 2.9879 23.2889 5.5799V12.2039C23.2889 14.7959 21.1784 16.8839 18.5583 16.8839H15.8655V19.2599C15.8655 21.8519 13.755 23.9399 11.1349 23.9399H4.73055C2.11056 23.9399 0 21.8519 0 19.2599ZM7.27778 8.1719H1.23722V5.5079C1.23722 3.6359 2.76556 2.0519 4.73055 2.0519H7.27778V8.1719ZM18.5583 15.7319H16.0112V9.53988H22.0517V12.2759C22.0517 14.1479 20.5234 15.7319 18.5583 15.7319ZM11.1349 22.7879H8.58776V17.0999H14.6283V19.3319C14.6283 21.2039 13.1 22.7879 11.1349 22.7879ZM8.58776 15.7319H14.6283V9.53988H8.58776V15.7319ZM16.0112 8.1719H22.0517V5.5799C22.0517 3.6359 20.4506 2.1239 18.5583 2.1239H16.0112V8.1719ZM14.6283 8.1719H8.58776V2.0519H14.6283V8.1719ZM1.16444 17.0279V19.2599C1.16444 21.2039 2.76556 22.7159 4.65778 22.7159H7.27778V17.0279H1.16444ZM7.27778 15.7319H1.16444V9.53988H7.27778V15.7319Z" fill="#2F2F3A"/>
</svg>
