<svg width="63" height="43" viewBox="0 0 63 43" fill="none" xmlns="http://www.w3.org/2000/svg">
<path fill-rule="evenodd" clip-rule="evenodd" d="M21.857 3.09215C23.597 2.99215 25.335 3.00015 27.075 3.00015C27.087 3.00015 35.892 3.00015 35.892 3.00015C37.666 3.00015 39.404 2.99215 41.143 3.09215C42.724 3.18215 44.264 3.37415 45.797 3.80315C49.024 4.70515 51.842 6.58915 53.879 9.26015C55.904 11.9142 57 15.1632 57 18.4992C57 21.8392 55.904 25.0862 53.879 27.7402C51.842 30.4102 49.024 32.2952 45.797 33.1972C44.264 33.6262 42.724 33.8172 41.143 33.9082C39.404 34.0082 37.666 33.9992 35.926 33.9992C35.914 33.9992 27.107 34.0002 27.107 34.0002C25.335 33.9992 23.597 34.0082 21.857 33.9082C20.277 33.8172 18.737 33.6262 17.204 33.1972C13.977 32.2952 11.159 30.4102 9.122 27.7402C7.097 25.0862 6 21.8392 6 18.5002C6 15.1632 7.097 11.9142 9.122 9.26015C11.159 6.58915 13.977 4.70515 17.204 3.80315C18.737 3.37415 20.277 3.18215 21.857 3.09215Z" fill="#3D3E3C"/>
<g filter="url(#filter0_dd_401_379)">
<path fill-rule="evenodd" clip-rule="evenodd" d="M21.5 32C28.9558 32 35 25.9558 35 18.5C35 11.0442 28.9558 5 21.5 5C14.0442 5 8 11.0442 8 18.5C8 25.9558 14.0442 32 21.5 32Z" fill="white"/>
</g>
<path fill-rule="evenodd" clip-rule="evenodd" d="M21.857 3.09215C23.597 2.99215 25.335 3.00015 27.075 3.00015C27.087 3.00015 35.892 3.00015 35.892 3.00015C37.666 3.00015 39.404 2.99215 41.143 3.09215C42.724 3.18215 44.264 3.37415 45.797 3.80315C49.024 4.70515 51.842 6.58915 53.879 9.26015C55.904 11.9142 57 15.1632 57 18.4992C57 21.8392 55.904 25.0862 53.879 27.7402C51.842 30.4102 49.024 32.2952 45.797 33.1972C44.264 33.6262 42.724 33.8172 41.143 33.9082C39.404 34.0082 37.666 33.9992 35.926 33.9992C35.914 33.9992 27.107 34.0002 27.107 34.0002C25.335 33.9992 23.597 34.0082 21.857 33.9082C20.277 33.8172 18.737 33.6262 17.204 33.1972C13.977 32.2952 11.159 30.4102 9.122 27.7402C7.097 25.0862 6 21.8392 6 18.5002C6 15.1632 7.097 11.9142 9.122 9.26015C11.159 6.58915 13.977 4.70515 17.204 3.80315C18.737 3.37415 20.277 3.18215 21.857 3.09215Z" fill="#46CA08"/>
<g filter="url(#filter1_dd_401_379)">
<path fill-rule="evenodd" clip-rule="evenodd" d="M41.5 32C48.9558 32 55 25.9558 55 18.5C55 11.0442 48.9558 5 41.5 5C34.0442 5 28 11.0442 28 18.5C28 25.9558 34.0442 32 41.5 32Z" fill="white"/>
</g>
<defs>
<filter id="filter0_dd_401_379" x="0" y="0" width="43" height="43" filterUnits="userSpaceOnUse" color-interpolation-filters="sRGB">
<feFlood flood-opacity="0" result="BackgroundImageFix"/>
<feColorMatrix in="SourceAlpha" type="matrix" values="0 0 0 0 0 0 0 0 0 0 0 0 0 0 0 0 0 0 127 0" result="hardAlpha"/>
<feOffset dy="3"/>
<feGaussianBlur stdDeviation="0.5"/>
<feColorMatrix type="matrix" values="0 0 0 0 0 0 0 0 0 0 0 0 0 0 0 0 0 0 0.06 0"/>
<feBlend mode="normal" in2="BackgroundImageFix" result="effect1_dropShadow_401_379"/>
<feColorMatrix in="SourceAlpha" type="matrix" values="0 0 0 0 0 0 0 0 0 0 0 0 0 0 0 0 0 0 127 0" result="hardAlpha"/>
<feOffset dy="3"/>
<feGaussianBlur stdDeviation="4"/>
<feColorMatrix type="matrix" values="0 0 0 0 0 0 0 0 0 0 0 0 0 0 0 0 0 0 0.15 0"/>
<feBlend mode="normal" in2="effect1_dropShadow_401_379" result="effect2_dropShadow_401_379"/>
<feBlend mode="normal" in="SourceGraphic" in2="effect2_dropShadow_401_379" result="shape"/>
</filter>
<filter id="filter1_dd_401_379" x="20" y="0" width="43" height="43" filterUnits="userSpaceOnUse" color-interpolation-filters="sRGB">
<feFlood flood-opacity="0" result="BackgroundImageFix"/>
<feColorMatrix in="SourceAlpha" type="matrix" values="0 0 0 0 0 0 0 0 0 0 0 0 0 0 0 0 0 0 127 0" result="hardAlpha"/>
<feOffset dy="3"/>
<feGaussianBlur stdDeviation="0.5"/>
<feColorMatrix type="matrix" values="0 0 0 0 0 0 0 0 0 0 0 0 0 0 0 0 0 0 0.06 0"/>
<feBlend mode="normal" in2="BackgroundImageFix" result="effect1_dropShadow_401_379"/>
<feColorMatrix in="SourceAlpha" type="matrix" values="0 0 0 0 0 0 0 0 0 0 0 0 0 0 0 0 0 0 127 0" result="hardAlpha"/>
<feOffset dy="3"/>
<feGaussianBlur stdDeviation="4"/>
<feColorMatrix type="matrix" values="0 0 0 0 0 0 0 0 0 0 0 0 0 0 0 0 0 0 0.15 0"/>
<feBlend mode="normal" in2="effect1_dropShadow_401_379" result="effect2_dropShadow_401_379"/>
<feBlend mode="normal" in="SourceGraphic" in2="effect2_dropShadow_401_379" result="shape"/>
</filter>
</defs>
</svg>
