<svg width="25" height="25" viewBox="0 0 25 25" fill="none" xmlns="http://www.w3.org/2000/svg">
<path d="M6.47021 10.4199C5.37021 10.4199 4.47021 11.3199 4.47021 12.4199C4.47021 13.5199 5.37021 14.4199 6.47021 14.4199C7.57021 14.4199 8.47021 13.5199 8.47021 12.4199C8.47021 11.3199 7.57021 10.4199 6.47021 10.4199ZM18.4702 10.4199C17.3702 10.4199 16.4702 11.3199 16.4702 12.4199C16.4702 13.5199 17.3702 14.4199 18.4702 14.4199C19.5702 14.4199 20.4702 13.5199 20.4702 12.4199C20.4702 11.3199 19.5702 10.4199 18.4702 10.4199ZM12.4702 10.4199C11.3702 10.4199 10.4702 11.3199 10.4702 12.4199C10.4702 13.5199 11.3702 14.4199 12.4702 14.4199C13.5702 14.4199 14.4702 13.5199 14.4702 12.4199C14.4702 11.3199 13.5702 10.4199 12.4702 10.4199Z" fill="#8B95AA"/>
</svg>
