<svg width="17" height="12" viewBox="0 0 17 12" fill="none" xmlns="http://www.w3.org/2000/svg">
<path d="M4.16542 3.53337H13.0543V8.8667H4.16542V3.53337ZM15.2765 6.20003C15.2765 6.93642 15.8735 7.53337 16.6099 7.53337V10.2C16.6099 10.9364 16.0129 11.5334 15.2765 11.5334H1.9432C1.20681 11.5334 0.609863 10.9364 0.609863 10.2V7.53337C1.34625 7.53337 1.9432 6.93642 1.9432 6.20003C1.9432 5.46364 1.34625 4.8667 0.609863 4.8667V2.20003C0.609863 1.46364 1.20681 0.866699 1.9432 0.866699H15.2765C16.0129 0.866699 16.6099 1.46364 16.6099 2.20003V4.8667C15.8735 4.8667 15.2765 5.46364 15.2765 6.20003ZM13.9432 3.31114C13.9432 2.94295 13.6447 2.64448 13.2765 2.64448H3.9432C3.575 2.64448 3.27653 2.94295 3.27653 3.31114V9.08892C3.27653 9.45712 3.575 9.75559 3.9432 9.75559H13.2765C13.6447 9.75559 13.9432 9.45712 13.9432 9.08892V3.31114Z" fill="#FF7474"/>
</svg>
