<svg width="18" height="14" viewBox="0 0 18 14" fill="none" xmlns="http://www.w3.org/2000/svg">
<path d="M17.659 4.65775C17.7961 4.54875 18 4.65075 18 4.82295V12.0125C18 12.9441 17.2441 13.7 16.3125 13.7H1.6875C0.75586 13.7 0 12.9441 0 12.0125V4.82655C0 4.65075 0.20039 4.55225 0.34102 4.66125C1.12852 5.27295 2.17266 6.04995 5.7586 8.65505C6.5004 9.19645 7.752 10.3355 9 10.3285C10.2551 10.3391 11.5312 9.17535 12.2449 8.65505C15.8309 6.04995 16.8715 5.26945 17.659 4.65775ZM9 9.19995C9.8156 9.21405 10.9898 8.17335 11.5805 7.74445C16.2457 4.35895 16.6008 4.06365 17.6766 3.21985C17.8805 3.06165 18 2.81555 18 2.55545V1.88745C18 0.955811 17.2441 0.199951 16.3125 0.199951H1.6875C0.75586 0.199951 0 0.955811 0 1.88745V2.55545C0 2.81555 0.11953 3.05815 0.32344 3.21985C1.39922 4.06015 1.7543 4.35895 6.4195 7.74445C7.0102 8.17335 8.1844 9.21405 9 9.19995Z" fill="#333342"/>
</svg>
