<svg width="16" height="21" viewBox="0 0 16 21" fill="none" xmlns="http://www.w3.org/2000/svg">
<path d="M8.0005 20.2C9.1005 20.2 10.0005 19.3 10.0005 18.2H6.0005C6.0005 19.3 6.8905 20.2 8.0005 20.2ZM14.0005 14.2V9.19995C14.0005 6.12995 12.3605 3.55995 9.5005 2.87995V2.19995C9.5005 1.36995 8.8305 0.699951 8.0005 0.699951C7.1705 0.699951 6.5005 1.36995 6.5005 2.19995V2.87995C3.6305 3.55995 2.0005 6.11995 2.0005 9.19995V14.2L0.71054 15.49C0.0805397 16.12 0.52054 17.2 1.41054 17.2H14.5805C15.4705 17.2 15.9205 16.12 15.2905 15.49L14.0005 14.2Z" fill="#333342"/>
</svg>
