<svg width="13" height="13" viewBox="0 0 13 13" fill="none" xmlns="http://www.w3.org/2000/svg">
<g clip-path="url(#clip0_301_819)">
<path d="M12.1781 2.29349L10.8867 1.00207C10.4839 0.599243 9.83052 0.599243 9.42768 1.00207L8.21275 2.21701L10.9632 4.96743L12.1781 3.75249C12.5809 3.34966 12.5809 2.69654 12.1781 2.29349ZM6.87578 1.85242C6.54019 1.51684 5.99621 1.51684 5.66063 1.85242L3.10872 4.40454C2.97444 4.53882 2.97444 4.75646 3.10872 4.89052L3.59491 5.37671C3.72919 5.51098 3.94682 5.51098 4.0811 5.37671L6.26863 3.18918L6.75482 3.67515L3.49866 6.9311C2.37081 8.05896 1.66027 9.53701 1.48387 11.1223L1.48322 11.1272C1.4467 11.4555 1.72406 11.7331 2.05234 11.6968C3.63962 11.5215 5.11985 10.8107 6.24908 9.68152L10.477 5.45362L8.69872 3.67537L6.87578 1.85242Z" fill="white"/>
</g>
<defs>
<clipPath id="clip0_301_819">
<rect width="12" height="12" fill="white" transform="translate(0.97998 0.199951)"/>
</clipPath>
</defs>
</svg>
