<svg width="16" height="17" viewBox="0 0 16 17" fill="none" xmlns="http://www.w3.org/2000/svg">
<g clip-path="url(#clip0_301_835)">
<path d="M15.8906 14.8531L12.0969 11.0593C12.025 10.9875 11.9313 10.95 11.8313 10.95H11.4187C12.4031 9.80933 13 8.32495 13 6.69995C13 3.10933 10.0906 0.199951 6.5 0.199951C2.90937 0.199951 0 3.10933 0 6.69995C0 10.2906 2.90937 13.2 6.5 13.2C8.125 13.2 9.60938 12.6031 10.75 11.6187V12.0312C10.75 12.1312 10.7906 12.225 10.8594 12.2968L14.6531 16.0906C14.8 16.2375 15.0375 16.2375 15.1844 16.0906L15.8906 15.3843C16.0375 15.2375 16.0375 15 15.8906 14.8531ZM6.5 11.7C3.7375 11.7 1.5 9.46245 1.5 6.69995C1.5 3.93745 3.7375 1.69995 6.5 1.69995C9.2625 1.69995 11.5 3.93745 11.5 6.69995C11.5 9.46245 9.2625 11.7 6.5 11.7Z" fill="#8B95AA"/>
</g>
<defs>
<clipPath id="clip0_301_835">
<rect width="16" height="16" fill="white" transform="translate(0 0.199951)"/>
</clipPath>
</defs>
</svg>
